<svg width="512" height="512" viewBox="0 0 512 512" fill="none" xmlns="http://www.w3.org/2000/svg">
<rect width="512" height="512" fill=""/>
<rect width="512" height="512" fill="url(#paint0_linear_0_1)"/>
<path d="M111 189C111 173.141 111 165.212 113.922 159.085C116.881 152.881 121.881 147.881 128.085 144.922C134.212 142 142.141 142 158 142C173.859 142 181.788 142 187.915 144.922C194.119 147.881 199.119 152.881 202.078 159.085C205 165.212 205 173.141 205 189V279C205 294.859 205 302.788 202.078 308.915C199.119 315.119 194.119 320.119 187.915 323.078C181.788 326 173.859 326 158 326C142.141 326 134.212 326 128.085 323.078C121.881 320.119 116.881 315.119 113.922 308.915C111 302.788 111 294.859 111 279V189Z" fill="url(#paint1_linear_0_1)"/>
<path d="M317 193C317 177.141 317 169.212 319.922 163.085C322.881 156.881 327.881 151.881 334.085 148.922C340.212 146 348.141 146 364 146C379.859 146 387.788 146 393.915 148.922C400.119 151.881 405.119 156.881 408.078 163.085C411 169.212 411 177.141 411 193V283C411 298.859 411 306.788 408.078 312.915C405.119 319.119 400.119 324.119 393.915 327.078C387.788 330 379.859 330 364 330C348.141 330 340.212 330 334.085 327.078C327.881 324.119 322.881 319.119 319.922 312.915C317 306.788 317 298.859 317 283V193Z" fill="url(#paint2_linear_0_1)"/>
<path d="M214 266C214 250.141 214 242.212 216.922 236.085C219.881 229.881 224.881 224.881 231.085 221.922C237.212 219 245.141 219 261 219C276.859 219 284.788 219 290.915 221.922C297.119 224.881 302.119 229.881 305.078 236.085C308 242.212 308 250.141 308 266V356C308 371.859 308 379.788 305.078 385.915C302.119 392.119 297.119 397.119 290.915 400.078C284.788 403 276.859 403 261 403C245.141 403 237.212 403 231.085 400.078C224.881 397.119 219.881 392.119 216.922 385.915C214 379.788 214 371.859 214 356V266Z" fill="url(#paint3_linear_0_1)"/>
<defs>
<linearGradient id="paint1_linear_0_1" x1="158" y1="142" x2="158" y2="326" gradientUnits="userSpaceOnUse">
<stop stop-color="#00A6FF"/>
<stop offset="1" stop-color="#003EFF"/>
</linearGradient>
<linearGradient id="paint2_linear_0_1" x1="364" y1="146" x2="364" y2="330" gradientUnits="userSpaceOnUse">
<stop stop-color="#00A6FF"/>
<stop offset="1" stop-color="#003EFF"/>
</linearGradient>
<linearGradient id="paint3_linear_0_1" x1="261" y1="219" x2="261" y2="403" gradientUnits="userSpaceOnUse">
<stop stop-color="#00A6FF"/>
<stop offset="1" stop-color="#003EFF"/>
<stop offset="1" stop-color="#0101FF"/>
<stop offset="1" stop-color="#003EFF"/>
<stop offset="1.0001" stop-color="#0000FD"/>
</linearGradient>
</defs>
</svg>
